<svg xmlns="http://www.w3.org/2000/svg" width="3891" height="744" viewBox="0 0 3891 744" fill="none">
  <path fill-rule="evenodd" clip-rule="evenodd" d="M1898.36 183.349C1939.14 183.349 1974.55 192.187 2004.6 209.865C2035.18 227.038 2058.79 251.536 2075.43 283.356C2092.6 314.672 2101.18 351.797 2101.18 394.729C2101.18 435.642 2092.86 471.756 2076.23 503.071C2060.13 534.387 2037.06 558.632 2007.01 575.805C1977.5 592.978 1942.36 601.564 1901.58 601.564C1865.09 601.564 1833.44 593.23 1806.61 576.562C1792.94 567.635 1780.87 556.862 1770.39 544.249V744H1627.13V187.895H1770.39V240.287C1780.41 227.949 1791.95 217.555 1805 209.108C1831.29 191.935 1862.41 183.349 1898.36 183.349ZM1862.95 287.145C1845.24 287.145 1829.14 291.691 1814.66 300.782C1800.71 309.369 1789.71 321.491 1781.66 337.148C1774.15 352.301 1770.39 370.233 1770.39 390.941C1770.39 411.145 1774.15 429.328 1781.66 445.491C1789.71 461.149 1800.71 473.271 1814.66 481.857C1829.14 490.444 1845.24 494.737 1862.95 494.737C1881.73 494.737 1898.09 490.444 1912.04 481.857C1926.53 472.766 1937.53 460.391 1945.04 444.733C1953.09 429.076 1957.11 411.145 1957.11 390.941C1957.11 370.738 1953.09 352.806 1945.04 337.148C1937.53 321.491 1926.53 309.369 1912.04 300.782C1898.09 291.691 1881.73 287.145 1862.95 287.145Z" fill="black"/>
  <path d="M516.291 520.809C499.535 535.611 481.162 548.891 461.174 560.651C435.419 575.299 408.322 586.664 379.885 594.745C351.984 602.827 324.083 606.867 296.182 606.867C253.793 606.867 214.624 600.049 178.675 586.411C152.591 576.15 128.91 563.095 107.628 547.25L208.436 452.46C219.096 460.924 230.906 467.946 243.867 473.523C262.647 481.1 282.768 484.888 304.23 484.888C327.839 484.888 351.984 479.332 376.666 468.22C395.671 459.465 413.153 448.558 429.111 435.5L516.291 520.809Z" fill="black"/>
  <path fill-rule="evenodd" clip-rule="evenodd" d="M1336.11 181.833C1396.74 181.833 1443.42 194.966 1476.15 221.23C1509.42 246.99 1526.32 283.357 1526.86 330.33V597.019H1386.01V550.915C1376.06 562.972 1363.98 573.038 1349.79 581.108C1324.04 595.756 1292.38 603.079 1254.82 603.079C1223.7 603.079 1196.87 597.523 1174.34 586.411C1152.34 575.299 1135.44 560.147 1123.63 540.953C1111.83 521.76 1105.93 499.788 1105.93 475.039C1105.93 436.147 1120.15 405.841 1148.58 384.122C1177.56 362.403 1218.87 351.291 1272.53 350.786H1386.01V346.24C1386.01 326.542 1379.04 311.136 1365.08 300.024C1351.13 288.912 1330.48 283.356 1303.11 283.356C1284.87 283.356 1264.48 286.134 1241.94 291.69C1219.41 297.246 1196.34 305.58 1172.73 316.692L1133.29 227.291C1156.36 217.694 1178.63 209.613 1200.09 203.047C1222.09 195.976 1244.36 190.672 1266.89 187.137C1289.43 183.601 1312.5 181.833 1336.11 181.833ZM1300.7 422.762C1280.31 422.762 1265.02 426.298 1254.82 433.369C1245.16 439.935 1240.33 450.542 1240.33 465.189C1240.33 479.837 1245.43 491.454 1255.63 500.041C1265.82 508.122 1280.31 512.163 1299.09 512.163C1313.57 512.163 1326.72 509.891 1338.53 505.345C1350.87 500.799 1361.06 494.485 1369.11 486.403C1377.69 477.817 1383.33 468.22 1386.01 457.613V422.762H1300.7Z" fill="black"/>
  <path d="M2337.44 206.835H2450.12V294.721H2337.44V451.552C2337.44 467.209 2340.93 478.574 2347.9 485.646C2354.88 492.717 2364.54 496 2376.88 495.495C2384.39 495.495 2392.7 494.232 2401.83 491.707C2410.95 489.182 2420.61 485.898 2430.8 481.857L2458.17 575.047C2442.6 584.139 2424.36 591.21 2403.44 596.261C2383.05 600.807 2362.12 603.079 2340.66 603.079C2312.76 603.079 2287.81 598.281 2265.81 588.685C2243.81 578.583 2226.37 563.935 2213.49 544.741C2201.15 525.043 2194.98 501.051 2194.98 472.766V294.721H2134.62V206.835H2194.98V93.9473H2337.44V206.835Z" fill="black"/>
  <path d="M3770.27 206.835H3882.95V294.721H3770.27V451.552C3770.27 467.21 3773.76 478.574 3780.74 485.646C3787.71 492.717 3797.37 496 3809.71 495.495C3817.22 495.495 3825.54 494.232 3834.66 491.707C3843.78 489.182 3853.44 485.898 3863.64 481.857L3891 575.047C3875.44 584.138 3857.2 591.21 3836.27 596.261C3815.88 600.807 3794.96 603.079 3773.49 603.079C3745.59 603.079 3720.64 598.281 3698.64 588.685C3676.64 578.583 3659.21 563.935 3646.33 544.741C3633.99 525.043 3627.82 501.051 3627.82 472.766V294.721H3567.46V206.835H3627.82V93.9473H3770.27V206.835Z" fill="#268AFF"/>
  <path fill-rule="evenodd" clip-rule="evenodd" d="M2716.17 183.349C2767.15 183.349 2809.27 193.45 2842.53 213.653C2876.34 233.352 2901.02 261.637 2916.58 298.509C2932.68 335.38 2939.11 378.566 2935.89 428.065H2632.95C2634.93 435.052 2637.45 441.618 2640.52 447.764C2649.1 464.937 2661.18 478.322 2676.74 487.919C2692.83 497.011 2711.34 501.556 2732.27 501.556C2770.9 501.556 2804.97 487.666 2834.48 459.886L2909.33 529.589C2887.34 552.318 2860.24 569.996 2828.05 582.623C2796.39 595.25 2760.17 601.564 2719.39 601.564C2672.17 601.564 2631.13 592.978 2596.25 575.805C2561.91 558.632 2535.35 534.387 2516.57 503.071C2498.33 471.756 2489.21 435.389 2489.21 393.972C2489.21 351.544 2498.6 314.672 2517.38 283.356C2536.16 251.536 2562.72 227.038 2597.06 209.865C2631.4 192.187 2671.1 183.349 2716.17 183.349ZM2716.98 276.538C2698.2 276.538 2682.1 281.336 2668.69 290.933C2655.81 300.024 2645.62 312.904 2638.1 329.572C2634.5 337.922 2631.83 347.015 2630.09 356.848H2797.46C2798 340.18 2794.78 326.037 2787.8 314.42C2781.36 302.298 2771.97 292.953 2759.63 286.387C2747.29 279.821 2733.07 276.538 2716.98 276.538Z" fill="black"/>
  <path d="M740.762 254.31C753.803 234.016 770.169 217.938 789.856 206.077C816.684 189.914 848.342 181.833 884.828 181.833C917.022 181.833 944.923 188.399 968.531 201.531C992.14 214.159 1010.38 232.342 1023.26 256.081C1036.67 279.315 1043.38 306.843 1043.38 338.664V597.019H900.12V376.546C900.12 353.312 893.413 334.876 879.999 321.238C866.585 307.601 848.61 300.782 826.074 300.782C799.783 301.287 778.857 310.379 763.297 328.057C748.508 344.961 740.999 366.761 740.768 393.454L740.762 394.729V597.019H597.5V34.8516H740.762V254.31Z" fill="black"/>
  <path d="M3292.87 303.812C3264.43 300.782 3239.48 303.056 3218.02 310.632C3197.1 318.208 3180.73 329.825 3168.93 345.482C3160.12 357.329 3154.75 371.182 3152.83 387.042V597.019H3009.57V187.895H3152.83V255.185C3165.62 235.419 3181.45 219.555 3200.32 207.593C3226.61 190.42 3257.46 181.833 3292.87 181.833V303.812Z" fill="black"/>
  <path d="M3497.86 597.019H3355.4V187.895H3497.86V597.019Z" fill="#268AFF"/>
  <path d="M191.791 221.209C179.284 234.232 169.546 249.644 162.578 267.446C155.066 286.135 151.311 306.591 151.311 328.814C151.311 351.038 155.066 371.748 162.578 390.941C168.874 406.604 177.432 420.668 188.25 433.138L85.916 529.362C85.4456 528.934 84.9764 528.505 84.5088 528.073C58.2174 502.819 37.5598 473.523 22.5361 440.188C7.51246 406.346 1.55183e-05 369.727 0 330.33C0 291.438 7.51245 255.576 22.5361 222.745C37.5598 189.409 58.7538 160.367 86.1182 135.617C88.6122 133.361 91.144 131.152 93.7139 128.988L191.791 221.209Z" fill="black"/>
  <path d="M301.815 57.5801C329.716 57.5801 357.618 61.369 385.519 68.9453C413.42 76.0166 439.712 86.3703 464.394 100.008C482.235 109.866 498.534 121.043 513.291 133.54L419.791 219.296C407.417 208.785 393.846 199.833 379.08 192.439C353.862 179.812 328.912 173.499 304.23 173.499C282.768 173.499 262.647 177.54 243.867 185.621C232.662 190.142 222.316 195.832 212.83 202.69L116.241 111.867C136.18 98.2204 158.065 86.944 181.895 78.0371C218.917 64.3997 258.891 57.5801 301.815 57.5801Z" fill="black"/>
  <path d="M3427.03 0C3449.03 9.26578e-05 3467 6.81873 3480.95 20.4561C3495.44 33.5884 3502.68 50.5091 3502.68 71.2178C3502.68 91.4214 3495.44 108.342 3480.95 121.979C3467 135.112 3449.03 141.679 3427.03 141.679C3405.03 141.679 3386.79 135.112 3372.3 121.979C3358.35 108.342 3351.37 91.4214 3351.37 71.2178C3351.37 50.5091 3358.35 33.5884 3372.3 20.4561C3386.79 6.81861 3405.03 0 3427.03 0Z" fill="#268AFF"/>
  <path d="M384.791 327.5C384.791 371.407 349.198 407 305.291 407C261.384 407 225.791 371.407 225.791 327.5C225.791 283.593 261.384 248 305.291 248C349.198 248 384.791 283.593 384.791 327.5Z" fill="#268AFF"/>
</svg>
